<svg width="17" height="18" viewBox="0 0 17 18" fill="none" xmlns="http://www.w3.org/2000/svg">
<path fill-rule="evenodd" clip-rule="evenodd" d="M8.5 6.875C8.5 6.875 9.60026 6.875 10.3783 7.653C10.3783 7.653 11.1562 8.431 11.1562 9.53125C11.1562 9.53125 11.1562 10.6315 10.3783 11.4095C10.3783 11.4095 9.60026 12.1875 8.5 12.1875C8.5 12.1875 7.39975 12.1875 6.62175 11.4095C6.62175 11.4095 5.84375 10.6315 5.84375 9.53125C5.84375 9.53125 5.84375 8.43099 6.62175 7.653C6.62175 7.653 7.39974 6.875 8.5 6.875ZM8.5 7.9375C8.5 7.9375 7.83985 7.9375 7.37305 8.4043C7.37305 8.4043 6.90625 8.8711 6.90625 9.53125C6.90625 9.53125 6.90625 10.1914 7.37305 10.6582C7.37305 10.6582 7.83985 11.125 8.5 11.125C8.5 11.125 9.16015 11.125 9.62695 10.6582C9.62695 10.6582 10.0938 10.1914 10.0938 9.53125C10.0938 9.53125 10.0937 8.8711 9.62695 8.4043C9.62695 8.4043 9.16015 7.9375 8.5 7.9375Z" fill="#48515A"/>
<path d="M10.0443 12.5521C10.7734 12.9166 11.2625 13.5688 11.2625 13.5688C11.347 13.6815 11.4729 13.756 11.6124 13.7759C11.6373 13.7795 11.6624 13.7812 11.6875 13.7812L11.6893 13.7812C11.8036 13.7809 11.9148 13.7436 12.0062 13.675C12.14 13.5747 12.2187 13.4172 12.2188 13.25L12.2187 13.243C12.2172 13.1305 12.18 13.0213 12.1125 12.9312C11.4729 12.0785 10.5194 11.6017 10.5194 11.6017C9.56599 11.125 8.5 11.125 8.5 11.125C7.434 11.125 6.48055 11.6017 6.48055 11.6017C5.5271 12.0785 4.8875 12.9312 4.8875 12.9312C4.81853 13.0232 4.78125 13.1351 4.78125 13.25L4.78127 13.2547C4.78148 13.2783 4.78326 13.3018 4.78659 13.3251C4.80652 13.4646 4.88103 13.5905 4.99375 13.675C5.08571 13.744 5.19755 13.7812 5.3125 13.7812L5.31718 13.7812C5.34075 13.781 5.36429 13.7792 5.38763 13.7759C5.52711 13.756 5.65296 13.6815 5.7375 13.5688C6.2266 12.9166 6.95572 12.5521 6.95572 12.5521C7.68483 12.1875 8.5 12.1875 8.5 12.1875C9.31517 12.1875 10.0443 12.5521 10.0443 12.5521Z" fill="#48515A"/>
<path fill-rule="evenodd" clip-rule="evenodd" d="M13.2812 2.09375C13.2812 2.09375 13.7214 2.09375 14.0326 2.40495C14.0326 2.40495 14.3438 2.71615 14.3438 3.15625V14.8438C14.3438 14.8438 14.3438 15.2839 14.0326 15.5951C14.0326 15.5951 13.7214 15.9062 13.2812 15.9062H3.71875C3.71875 15.9062 3.27865 15.9062 2.96745 15.5951C2.96745 15.5951 2.65625 15.2839 2.65625 14.8438V3.15625C2.65625 3.15625 2.65625 2.71615 2.96745 2.40495C2.96745 2.40495 3.27865 2.09375 3.71875 2.09375H13.2812ZM13.2812 3.15625H3.71875V14.8438H13.2812V3.15625Z" fill="#48515A"/>
<path d="M6.375 5.28125H10.625C10.9184 5.28125 11.1562 5.0434 11.1562 4.75C11.1562 4.4566 10.9184 4.21875 10.625 4.21875H6.375C6.0816 4.21875 5.84375 4.4566 5.84375 4.75C5.84375 5.0434 6.0816 5.28125 6.375 5.28125Z" fill="#48515A"/>
</svg>
