<svg width="17" height="18" viewBox="0 0 17 18" fill="none" xmlns="http://www.w3.org/2000/svg">
<path fill-rule="evenodd" clip-rule="evenodd" d="M15.4062 12.2766L15.4062 12.2782C15.4062 12.2782 15.4043 12.5643 15.2597 12.8112C15.2597 12.8112 15.1146 13.0589 14.8651 13.2006L9.01943 16.4888C9.01943 16.4888 8.78113 16.6264 8.5 16.6264C8.5 16.6264 8.21887 16.6264 7.97539 16.4858L2.13681 13.2017C2.13681 13.2017 1.88538 13.0589 1.74034 12.8112C1.74034 12.8112 1.5953 12.5636 1.59376 12.2766L1.59375 5.72613C1.59375 5.72613 1.5953 5.4363 1.74034 5.18867C1.74034 5.18867 1.88538 4.94104 2.13493 4.79933L7.98056 1.51116C7.98056 1.51116 8.21886 1.37354 8.5 1.37354C8.5 1.37354 8.78114 1.37354 9.02461 1.5141L14.8632 4.79826C14.8632 4.79826 15.1146 4.94104 15.2597 5.18867C15.2597 5.18867 15.4047 5.43631 15.4062 5.72328L15.4062 12.2738L15.4062 12.2766ZM14.3438 5.72898L14.3438 12.2709C14.3438 12.2709 14.3437 12.2729 14.3428 12.2743C14.3428 12.2743 14.3425 12.2748 14.342 12.2754C14.3416 12.2758 14.341 12.2763 14.3404 12.2767L8.49997 15.5619L2.65779 12.2756C2.65779 12.2756 2.65791 12.2755 2.65715 12.2743C2.65715 12.2743 2.65625 12.2727 2.65624 12.2709L2.65625 5.72613C2.65625 5.72613 2.65658 5.72664 2.65715 5.72567C2.65715 5.72567 2.65805 5.72413 2.6596 5.72325L8.50003 2.43801L14.3422 5.7243C14.3423 5.7245 14.3425 5.72511 14.3428 5.72567C14.3428 5.72567 14.3437 5.7272 14.3438 5.72898Z" fill="#48515A"/>
<path d="M5.56907 3.15585C5.4905 3.11251 5.40223 3.08979 5.3125 3.08979L5.30568 3.08983C5.25806 3.09044 5.21074 3.09745 5.16499 3.11068C5.02963 3.1498 4.91536 3.24109 4.84731 3.36446C4.80398 3.44304 4.78125 3.53131 4.78125 3.62104L4.78129 3.62785C4.7819 3.67547 4.78892 3.7228 4.80214 3.76855C4.84126 3.9039 4.93255 4.01818 5.05593 4.08622L11.2227 7.48746V10.6269C11.2227 10.9203 11.4605 11.1581 11.7539 11.1581C12.0473 11.1581 12.2852 10.9203 12.2852 10.6269V7.17377C12.2852 6.98025 12.1799 6.80205 12.0105 6.70859L5.56907 3.15585Z" fill="#48515A"/>
<path d="M8.55727 8.39033L2.45668 4.98979C2.37759 4.94571 2.28856 4.92257 2.19802 4.92257L2.19359 4.92259C2.14596 4.92299 2.09861 4.92979 2.0528 4.94281C1.91727 4.98132 1.80259 5.0721 1.73399 5.19517C1.68991 5.27425 1.66677 5.36329 1.66677 5.45382L1.66679 5.45826C1.66719 5.50588 1.67399 5.55323 1.68701 5.59904C1.72552 5.73457 1.8163 5.84925 1.93937 5.91785L8.30108 9.46395C8.46321 9.55432 8.66076 9.55352 8.82215 9.46183L15.0643 5.91574C15.1868 5.84615 15.2767 5.73073 15.3141 5.5949C15.3268 5.54894 15.3332 5.50149 15.3332 5.45382L15.333 5.44078C15.3309 5.35323 15.3071 5.26756 15.2638 5.19141C15.1694 5.02523 14.993 4.92257 14.8019 4.92257C14.7949 4.92257 14.788 4.92271 14.781 4.92299C14.6961 4.92633 14.6133 4.94997 14.5395 4.99191L8.55727 8.39033Z" fill="#48515A"/>
<path d="M7.96877 16.0877L7.96875 16.0921C7.96875 16.1231 7.97145 16.1539 7.97682 16.1844C8.0213 16.4366 8.23941 16.6212 8.49552 16.6234C8.50403 16.6234 8.51254 16.6233 8.52105 16.623C8.65301 16.6177 8.7783 16.5635 8.87247 16.4709C8.97294 16.3721 9.03004 16.2375 9.03123 16.0966L9.091 9.00453L9.09102 8.99994C9.09102 8.99293 9.09088 8.98591 9.0906 8.9789C9.08537 8.84693 9.03117 8.72164 8.93857 8.62747C8.83978 8.52701 8.70513 8.4699 8.56424 8.46871L8.55977 8.46869C8.55275 8.46869 8.54573 8.46883 8.53872 8.46911C8.40675 8.47434 8.28147 8.52854 8.18729 8.62114C8.08683 8.71993 8.02972 8.85457 8.02853 8.99547L7.96877 16.0877Z" fill="#48515A"/>
</svg>
