<svg width="14" height="14" viewBox="0 0 14 14" fill="none" xmlns="http://www.w3.org/2000/svg">
<path fill-rule="evenodd" clip-rule="evenodd" d="M13.1872 0.812673C12.76 0.385537 12.0675 0.385537 11.6404 0.812673L7 5.45306L2.35961 0.812672C1.93248 0.385536 1.23995 0.385536 0.812816 0.812672C0.38568 1.23981 0.38568 1.93233 0.812816 2.35947L5.4532 6.99986L0.812815 11.6402C0.385679 12.0674 0.385679 12.7599 0.812815 13.187C1.23995 13.6142 1.93248 13.6142 2.35961 13.187L7 8.54665L11.6404 13.187C12.0675 13.6142 12.76 13.6142 13.1872 13.187C13.6143 12.7599 13.6143 12.0674 13.1872 11.6402L8.5468 6.99986L13.1872 2.35947C13.6143 1.93233 13.6143 1.23981 13.1872 0.812673Z" fill="#262D34"/>
</svg>
