<svg width="17" height="18" viewBox="0 0 17 18" fill="none" xmlns="http://www.w3.org/2000/svg">
<path d="M5.04688 7.9375H11.9531C12.2465 7.9375 12.4844 7.69965 12.4844 7.40625C12.4844 7.11285 12.2465 6.875 11.9531 6.875H5.04688C4.75347 6.875 4.51562 7.11285 4.51562 7.40625C4.51562 7.69965 4.75347 7.9375 5.04688 7.9375Z" fill="#48515A"/>
<path d="M5.04688 10.0625H11.9531C12.2465 10.0625 12.4844 9.82465 12.4844 9.53125C12.4844 9.23785 12.2465 9 11.9531 9H5.04688C4.75347 9 4.51562 9.23785 4.51562 9.53125C4.51562 9.82465 4.75347 10.0625 5.04688 10.0625Z" fill="#48515A"/>
<path fill-rule="evenodd" clip-rule="evenodd" d="M2.36258 14.7877L4.25 13.844L6.13742 14.7877C6.28698 14.8624 6.46302 14.8624 6.61258 14.7877L8.5 13.844L10.3874 14.7877C10.537 14.8624 10.713 14.8624 10.8626 14.7877L12.75 13.844L14.6374 14.7877C14.7112 14.8245 14.7925 14.8438 14.875 14.8438C15.1684 14.8438 15.4062 14.6059 15.4062 14.3125V4.21875C15.4062 4.21875 15.4062 3.77865 15.0951 3.46745C15.0951 3.46745 14.7839 3.15625 14.3438 3.15625H2.65625C2.65625 3.15625 2.21615 3.15625 1.90495 3.46745C1.90495 3.46745 1.59375 3.77865 1.59375 4.21875V14.3125C1.59375 14.395 1.61295 14.4763 1.64984 14.5501C1.71285 14.6761 1.82334 14.7719 1.957 14.8165C2.09067 14.861 2.23656 14.8507 2.36258 14.7877ZM4.01242 12.7748C4.16198 12.7001 4.33802 12.7001 4.48758 12.7748L6.375 13.7185L8.26242 12.7748C8.41198 12.7001 8.58802 12.7001 8.73758 12.7748L10.625 13.7185L12.5124 12.7748C12.662 12.7001 12.838 12.7001 12.9876 12.7748L14.3438 13.4529V4.21875H2.65625V13.4529L4.01242 12.7748Z" fill="#48515A"/>
</svg>
