<svg width="17" height="18" viewBox="0 0 17 18" fill="none" xmlns="http://www.w3.org/2000/svg">
<path d="M15.0543 14.9766C15.0745 15.0549 15.0766 15.1367 15.0604 15.2159C15.0442 15.2951 15.0102 15.3695 14.9608 15.4335C14.9115 15.4976 14.8483 15.5495 14.7759 15.5854C14.7034 15.6213 14.6238 15.6402 14.543 15.6407H10.4258C10.345 15.6402 10.2653 15.6213 10.1929 15.5854C10.1205 15.5495 10.0572 15.4976 10.0079 15.4335C9.9586 15.3695 9.92455 15.2951 9.90836 15.2159C9.89216 15.1367 9.89425 15.0549 9.91445 14.9766C10.0762 14.3486 10.4609 13.801 10.9969 13.436C10.6954 13.1405 10.4888 12.762 10.4034 12.3486C10.3179 11.9353 10.3575 11.5058 10.5171 11.115C10.6767 10.7243 10.949 10.3899 11.2994 10.1545C11.6497 9.91913 12.0623 9.79342 12.4844 9.79342C12.9065 9.79342 13.319 9.91913 13.6694 10.1545C14.0197 10.3899 14.2921 10.7243 14.4517 11.115C14.6112 11.5058 14.6508 11.9353 14.5654 12.3486C14.4799 12.762 14.2733 13.1405 13.9719 13.436C14.5078 13.801 14.8926 14.3486 15.0543 14.9766ZM14.3438 5.28129H8.6793L6.8332 3.90004C6.65022 3.76034 6.42591 3.68557 6.1957 3.68754H2.65625C2.37446 3.68754 2.10421 3.79948 1.90495 3.99874C1.70569 4.19799 1.59375 4.46825 1.59375 4.75004V13.7813C1.59375 14.0631 1.70569 14.3333 1.90495 14.5326C2.10421 14.7318 2.37446 14.8438 2.65625 14.8438H7.96875C8.10965 14.8438 8.24477 14.7878 8.3444 14.6882C8.44403 14.5886 8.5 14.4534 8.5 14.3125C8.5 14.1716 8.44403 14.0365 8.3444 13.9369C8.24477 13.8373 8.10965 13.7813 7.96875 13.7813H2.65625V4.75004H6.1957L8.0418 6.13129C8.22478 6.27099 8.44909 6.34576 8.6793 6.34379H14.3438V8.46879C14.3438 8.60968 14.3997 8.74481 14.4993 8.84444C14.599 8.94407 14.7341 9.00004 14.875 9.00004C15.0159 9.00004 15.151 8.94407 15.2507 8.84444C15.3503 8.74481 15.4062 8.60968 15.4062 8.46879V6.34379C15.4062 6.062 15.2943 5.79174 15.0951 5.59249C14.8958 5.39323 14.6255 5.28129 14.3438 5.28129Z" fill="#48515A"/>
</svg>
