<svg width="17" height="18" viewBox="0 0 17 18" fill="none" xmlns="http://www.w3.org/2000/svg">
<path d="M6.375 11.125H10.625C10.9184 11.125 11.1562 10.8872 11.1562 10.5938C11.1562 10.3003 10.9184 10.0625 10.625 10.0625H6.375C6.0816 10.0625 5.84375 10.3003 5.84375 10.5938C5.84375 10.8872 6.0816 11.125 6.375 11.125Z" fill="#48515A"/>
<path d="M6.375 9H10.625C10.9184 9 11.1562 8.76215 11.1562 8.46875C11.1562 8.17535 10.9184 7.9375 10.625 7.9375H6.375C6.0816 7.9375 5.84375 8.17535 5.84375 8.46875C5.84375 8.76215 6.0816 9 6.375 9Z" fill="#48515A"/>
<path d="M3.71875 3.6875H6.375C6.6684 3.6875 6.90625 3.44965 6.90625 3.15625C6.90625 2.86285 6.6684 2.625 6.375 2.625H3.71875C3.27865 2.625 2.96745 2.9362 2.96745 2.9362C2.65625 3.2474 2.65625 3.6875 2.65625 3.6875V14.8438C2.65625 15.2839 2.96745 15.5951 2.96745 15.5951C3.27865 15.9062 3.71875 15.9062 3.71875 15.9062H13.2812C13.7214 15.9062 14.0326 15.5951 14.0326 15.5951C14.3438 15.2839 14.3438 14.8438 14.3438 14.8438V3.6875C14.3438 3.2474 14.0326 2.9362 14.0326 2.9362C13.7214 2.625 13.2812 2.625 13.2812 2.625H10.625C10.3316 2.625 10.0938 2.86285 10.0938 3.15625C10.0938 3.44965 10.3316 3.6875 10.625 3.6875H13.2812V14.8438H3.71875V3.6875Z" fill="#48515A"/>
<path fill-rule="evenodd" clip-rule="evenodd" d="M5.84375 5.8125C5.55035 5.8125 5.3125 5.57465 5.3125 5.28125V4.75C5.3125 4.75 5.3125 3.42969 6.2461 2.4961C6.2461 2.4961 7.17969 1.5625 8.5 1.5625C8.5 1.5625 9.82031 1.5625 10.7539 2.4961C10.7539 2.4961 11.6875 3.42969 11.6875 4.75V5.28125C11.6875 5.57465 11.4497 5.8125 11.1562 5.8125H5.84375ZM10.0026 3.2474C10.0026 3.2474 10.625 3.8698 10.625 4.75H6.375C6.375 4.75 6.375 3.8698 6.9974 3.2474C6.9974 3.2474 7.6198 2.625 8.5 2.625C8.5 2.625 9.3802 2.625 10.0026 3.2474Z" fill="#48515A"/>
</svg>
