<svg width="17" height="18" viewBox="0 0 17 18" fill="none" xmlns="http://www.w3.org/2000/svg">
<path fill-rule="evenodd" clip-rule="evenodd" d="M1.59375 13.25V4.21875C1.59375 3.92535 1.8316 3.6875 2.125 3.6875H14.875C15.1684 3.6875 15.4062 3.92535 15.4062 4.21875V13.25C15.4062 13.25 15.4062 13.6901 15.0951 14.0013C15.0951 14.0013 14.7839 14.3125 14.3438 14.3125H2.65625C2.65625 14.3125 2.21615 14.3125 1.90495 14.0013C1.90495 14.0013 1.59375 13.6901 1.59375 13.25ZM2.65625 13.25H14.3438V4.75H2.65625V13.25Z" fill="#48515A"/>
<path d="M2.125 7.9375H14.875C15.1684 7.9375 15.4062 7.69965 15.4062 7.40625C15.4062 7.11285 15.1684 6.875 14.875 6.875H2.125C1.8316 6.875 1.59375 7.11285 1.59375 7.40625C1.59375 7.69965 1.8316 7.9375 2.125 7.9375Z" fill="#48515A"/>
<path d="M2.125 11.125H14.875C15.1684 11.125 15.4062 10.8872 15.4062 10.5938C15.4062 10.3003 15.1684 10.0625 14.875 10.0625H2.125C1.8316 10.0625 1.59375 10.3003 1.59375 10.5938C1.59375 10.8872 1.8316 11.125 2.125 11.125Z" fill="#48515A"/>
<path d="M5.3125 7.40625V13.7812C5.3125 14.0747 5.55035 14.3125 5.84375 14.3125C6.13715 14.3125 6.375 14.0747 6.375 13.7812V7.40625C6.375 7.11285 6.13715 6.875 5.84375 6.875C5.55035 6.875 5.3125 7.11285 5.3125 7.40625Z" fill="#48515A"/>
</svg>
