<svg width="17" height="18" viewBox="0 0 17 18" fill="none" xmlns="http://www.w3.org/2000/svg">
<path d="M8.5 11.3906C10.1137 11.3906 11.4219 10.0825 11.4219 8.46875C11.4219 6.85504 10.1137 5.54688 8.5 5.54688C6.88629 5.54688 5.57812 6.85504 5.57812 8.46875C5.57812 10.0825 6.88629 11.3906 8.5 11.3906Z" fill="#48515A"/>
<path d="M8.5 2.09375C7.13408 2.09375 5.79882 2.49879 4.6631 3.25766C3.52737 4.01653 2.64218 5.09514 2.11946 6.35709C1.59674 7.61904 1.45998 9.00766 1.72645 10.3473C1.99293 11.687 2.65069 12.9176 3.61655 13.8835C4.5824 14.8493 5.81298 15.5071 7.15266 15.7735C8.49234 16.04 9.88096 15.9033 11.1429 15.3805C12.4049 14.8578 13.4835 13.9726 14.2423 12.8369C15.0012 11.7012 15.4063 10.3659 15.4063 9C15.4027 7.16943 14.674 5.41483 13.3796 4.12042C12.0852 2.82601 10.3306 2.09726 8.5 2.09375ZM12.8695 12.8781C12.4395 12.2613 11.8853 11.741 11.2426 11.3508C10.5046 12.0578 9.52203 12.4525 8.5 12.4525C7.47797 12.4525 6.49543 12.0578 5.75742 11.3508C5.11466 11.741 4.56051 12.2613 4.13047 12.8781C3.38259 12.0359 2.89402 10.9956 2.72356 9.88223C2.55311 8.76889 2.70802 7.63 3.16967 6.60264C3.63132 5.57527 4.38003 4.70321 5.3257 4.0914C6.27136 3.47958 7.37368 3.15409 8.5 3.15409C9.62632 3.15409 10.7286 3.47958 11.6743 4.0914C12.62 4.70321 13.3687 5.57527 13.8303 6.60264C14.292 7.63 14.4469 8.76889 14.2764 9.88223C14.106 10.9956 13.6174 12.0359 12.8695 12.8781Z" fill="#48515A"/>
</svg>
