<svg width="17" height="18" viewBox="0 0 17 18" fill="none" xmlns="http://www.w3.org/2000/svg">
<path fill-rule="evenodd" clip-rule="evenodd" d="M15.2507 5.12565L8.87565 11.5007C8.77602 11.6003 8.6409 11.6562 8.5 11.6562H6.375C6.0816 11.6562 5.84375 11.4184 5.84375 11.125V9C5.84375 8.8591 5.89972 8.72398 5.99935 8.62435L12.3743 2.24935C12.474 2.14972 12.6091 2.09375 12.75 2.09375C12.8909 2.09375 13.026 2.14972 13.1257 2.24935L15.2507 4.37435C15.4581 4.58182 15.4581 4.91818 15.2507 5.12565ZM12.75 3.3763L14.1237 4.75L8.27995 10.5938H6.90625V9.22005L12.75 3.3763Z" fill="#48515A"/>
<path d="M12.9054 6.71923C13.0051 6.81886 13.1404 6.875 13.2812 6.875C13.2904 6.875 13.2996 6.87476 13.3087 6.87429C13.44 6.86749 13.564 6.81231 13.6569 6.7194C13.7565 6.61977 13.8125 6.48465 13.8125 6.34375C13.8125 6.20285 13.7565 6.06773 13.6569 5.9681L11.5319 3.8431C11.4323 3.74347 11.2971 3.6875 11.1562 3.6875C11.0154 3.6875 10.8802 3.74347 10.7806 3.8431C10.681 3.94273 10.625 4.07785 10.625 4.21875C10.625 4.35965 10.681 4.49477 10.7806 4.5944L12.9054 6.71923Z" fill="#48515A"/>
<path d="M3.1875 3.6875H9.03125C9.32465 3.6875 9.5625 3.44965 9.5625 3.15625C9.5625 2.86285 9.32465 2.625 9.03125 2.625H3.1875C2.7474 2.625 2.4362 2.9362 2.4362 2.9362C2.125 3.2474 2.125 3.6875 2.125 3.6875V14.3125C2.125 14.7526 2.4362 15.0638 2.4362 15.0638C2.7474 15.375 3.1875 15.375 3.1875 15.375H13.8125C14.2526 15.375 14.5638 15.0638 14.5638 15.0638C14.875 14.7526 14.875 14.3125 14.875 14.3125V8.46875C14.875 8.17535 14.6372 7.9375 14.3438 7.9375C14.0503 7.9375 13.8125 8.17535 13.8125 8.46875V14.3125H3.1875V3.6875Z" fill="#48515A"/>
</svg>
