<svg width="17" height="18" viewBox="0 0 17 18" fill="none" xmlns="http://www.w3.org/2000/svg">
<path d="M11.6875 2.625H2.65624C2.36284 2.625 2.12499 2.86285 2.12499 3.15625C2.12499 3.44965 2.36284 3.6875 2.65624 3.6875H11.6875C11.9009 3.68661 12.0962 3.76701 12.0962 3.76701C12.2914 3.84742 12.4408 3.99674 12.4408 3.99674C12.5901 4.14606 12.6705 4.34133 12.6705 4.34133C12.7509 4.5366 12.75 4.74777 12.75 4.74777L12.75 12.1875C12.75 12.4809 12.9878 12.7188 13.2812 12.7188C13.5746 12.7188 13.8125 12.4809 13.8125 12.1875L13.8125 4.75223C13.8143 4.32855 13.6529 3.93679 13.6529 3.93679C13.4916 3.54502 13.1921 3.24544 13.1921 3.24544C12.8925 2.94585 12.5007 2.78454 12.5007 2.78454C12.1089 2.62323 11.6875 2.625 11.6875 2.625Z" fill="#48515A"/>
<path d="M6.90624 7.93748H11.1562C11.4496 7.93748 11.6875 7.69963 11.6875 7.40623C11.6875 7.11283 11.4496 6.87498 11.1562 6.87498H6.90624C6.61284 6.87498 6.37499 7.11283 6.37499 7.40623C6.37499 7.69963 6.61284 7.93748 6.90624 7.93748Z" fill="#48515A"/>
<path d="M6.90624 10.0625H11.1562C11.4496 10.0625 11.6875 9.82463 11.6875 9.53123C11.6875 9.23783 11.4496 8.99998 11.1562 8.99998H6.90624C6.61284 8.99998 6.37499 9.23783 6.37499 9.53123C6.37499 9.82463 6.61284 10.0625 6.90624 10.0625Z" fill="#48515A"/>
<path fill-rule="evenodd" clip-rule="evenodd" d="M5.59149 15.3591C5.59149 15.3591 5.70628 15.3729 5.81957 15.3745C5.82762 15.3748 5.83568 15.375 5.84374 15.375H13.2812C13.2812 15.375 13.9096 15.3753 14.4372 15.0336C14.4372 15.0336 14.9649 14.6918 15.2216 14.118C15.2216 14.118 15.4784 13.5442 15.3817 12.923C15.3817 12.923 15.285 12.3019 14.8659 11.8333C14.7651 11.7207 14.6211 11.6563 14.4699 11.6563H7.03241C6.73901 11.6563 6.50116 11.8941 6.50116 12.1875C6.50116 12.3181 6.54923 12.444 6.63619 12.5414C6.63619 12.5414 6.8108 12.7369 6.87445 12.9912C6.87445 12.9912 6.93809 13.2455 6.87617 13.5002C6.87617 13.5002 6.81424 13.7549 6.64095 13.9516C6.64095 13.9516 6.46766 14.1482 6.22277 14.2417C6.22277 14.2417 5.97789 14.3353 5.71762 14.3041C5.71762 14.3041 5.45734 14.273 5.24141 14.1244C5.24141 14.1244 5.02547 13.9758 4.90343 13.7438C4.90343 13.7438 4.78138 13.5119 4.78124 13.2497V4.75001C4.78124 4.75001 4.78096 4.22547 4.53688 3.7615C4.53688 3.7615 4.29279 3.29753 3.86092 3.00032C3.86092 3.00032 3.42904 2.70312 2.90849 2.64088C2.90849 2.64088 2.38794 2.57865 1.89818 2.76567C1.89818 2.76567 1.40841 2.9527 1.06183 3.34605C1.06183 3.34605 0.715254 3.73941 0.591397 4.24882C0.591397 4.24882 0.467541 4.75824 0.594831 5.26681C0.594831 5.26681 0.722122 5.77538 1.07135 6.16639C1.17214 6.27924 1.31626 6.34376 1.46757 6.34376C1.47591 6.34376 1.48424 6.34356 1.49257 6.34317C1.61438 6.33743 1.7305 6.28996 1.82145 6.20873C1.9343 6.10794 1.99882 5.96381 1.99882 5.81251C1.99882 5.80417 1.99862 5.79584 1.99823 5.78751C1.99249 5.6657 1.94503 5.54957 1.86379 5.45862C1.86379 5.45862 1.68918 5.26312 1.62554 5.00884C1.62554 5.00884 1.56189 4.75455 1.62382 4.49984C1.62382 4.49984 1.68575 4.24513 1.85904 4.04846C1.85904 4.04846 2.03233 3.85178 2.27721 3.75827C2.27721 3.75827 2.52209 3.66476 2.78237 3.69587C2.78237 3.69587 3.04264 3.72699 3.25858 3.87559C3.25858 3.87559 3.47452 4.02419 3.59656 4.25618C3.59656 4.25618 3.7186 4.48816 3.71874 4.75001V13.2503C3.71874 13.2503 3.71902 13.7746 3.96311 14.2385C3.96311 14.2385 4.20719 14.7025 4.63907 14.9997C4.63907 14.9997 5.07094 15.2969 5.59149 15.3591ZM13.2812 14.3125H7.68456C7.68456 14.3125 7.83543 14.0521 7.90859 13.7512C7.90859 13.7512 8.03244 13.2418 7.90515 12.7332L7.90149 12.7188H14.2031C14.2031 12.7188 14.3008 12.8869 14.3319 13.0865C14.3319 13.0865 14.3802 13.3971 14.2518 13.684C14.2518 13.684 14.1234 13.9709 13.8596 14.1418C13.8596 14.1418 13.5958 14.3127 13.2812 14.3125Z" fill="#48515A"/>
</svg>
