<svg width="17" height="18" viewBox="0 0 17 18" fill="none" xmlns="http://www.w3.org/2000/svg">
<path d="M14.3438 4.21875V6.34375C14.3438 6.63715 14.5816 6.875 14.875 6.875C15.1684 6.875 15.4062 6.63715 15.4062 6.34375V3.6875C15.4062 3.3941 15.1684 3.15625 14.875 3.15625H12.2188C11.9253 3.15625 11.6875 3.3941 11.6875 3.6875C11.6875 3.9809 11.9253 4.21875 12.2188 4.21875H14.3438Z" fill="#48515A"/>
<path d="M2.65625 13.7812V11.6562C2.65625 11.3628 2.4184 11.125 2.125 11.125C1.8316 11.125 1.59375 11.3628 1.59375 11.6562V14.3125C1.59375 14.6059 1.8316 14.8438 2.125 14.8438H4.78125C5.07465 14.8438 5.3125 14.6059 5.3125 14.3125C5.3125 14.0191 5.07465 13.7812 4.78125 13.7812H2.65625Z" fill="#48515A"/>
<path d="M14.3438 13.7812H12.2188C11.9253 13.7812 11.6875 14.0191 11.6875 14.3125C11.6875 14.6059 11.9253 14.8438 12.2188 14.8438H14.875C15.1684 14.8438 15.4062 14.6059 15.4062 14.3125V11.6562C15.4062 11.3628 15.1684 11.125 14.875 11.125C14.5816 11.125 14.3438 11.3628 14.3438 11.6562V13.7812Z" fill="#48515A"/>
<path d="M2.65625 4.21875H4.78125C5.07465 4.21875 5.3125 3.9809 5.3125 3.6875C5.3125 3.3941 5.07465 3.15625 4.78125 3.15625H2.125C1.8316 3.15625 1.59375 3.3941 1.59375 3.6875V6.34375C1.59375 6.63715 1.8316 6.875 2.125 6.875C2.4184 6.875 2.65625 6.63715 2.65625 6.34375V4.21875Z" fill="#48515A"/>
<path d="M4.78125 6.34375V11.6562C4.78125 11.9497 5.0191 12.1875 5.3125 12.1875C5.6059 12.1875 5.84375 11.9497 5.84375 11.6562V6.34375C5.84375 6.05035 5.6059 5.8125 5.3125 5.8125C5.0191 5.8125 4.78125 6.05035 4.78125 6.34375Z" fill="#48515A"/>
<path d="M11.1562 6.34375V11.6562C11.1562 11.9497 11.3941 12.1875 11.6875 12.1875C11.9809 12.1875 12.2188 11.9497 12.2188 11.6562V6.34375C12.2188 6.05035 11.9809 5.8125 11.6875 5.8125C11.3941 5.8125 11.1562 6.05035 11.1562 6.34375Z" fill="#48515A"/>
<path d="M9.03125 6.34375V11.6562C9.03125 11.9497 9.2691 12.1875 9.5625 12.1875C9.8559 12.1875 10.0938 11.9497 10.0938 11.6562V6.34375C10.0938 6.05035 9.8559 5.8125 9.5625 5.8125C9.2691 5.8125 9.03125 6.05035 9.03125 6.34375Z" fill="#48515A"/>
<path d="M6.90625 6.34375V11.6562C6.90625 11.9497 7.1441 12.1875 7.4375 12.1875C7.7309 12.1875 7.96875 11.9497 7.96875 11.6562V6.34375C7.96875 6.05035 7.7309 5.8125 7.4375 5.8125C7.1441 5.8125 6.90625 6.05035 6.90625 6.34375Z" fill="#48515A"/>
</svg>
