<svg width="17" height="18" viewBox="0 0 17 18" fill="none" xmlns="http://www.w3.org/2000/svg">
<path fill-rule="evenodd" clip-rule="evenodd" d="M8.50005 5.28103C8.50005 5.28103 10.0404 5.28103 11.1296 6.37023C11.1296 6.37023 12.2188 7.45942 12.2188 8.99978C12.2188 8.99978 12.2188 10.5401 11.1296 11.6293C11.1296 11.6293 10.0404 12.7185 8.50005 12.7185C8.50005 12.7185 6.95969 12.7185 5.87049 11.6293C5.87049 11.6293 4.7813 10.5401 4.7813 8.99978C4.7813 8.99978 4.7813 7.45942 5.87049 6.37022C5.87049 6.37022 6.95969 5.28103 8.50005 5.28103ZM8.50005 6.34353C8.50005 6.34353 7.39979 6.34353 6.62179 7.12153C6.62179 7.12153 5.8438 7.89952 5.8438 8.99978C5.8438 8.99978 5.8438 10.1 6.62179 10.878C6.62179 10.878 7.39979 11.656 8.50005 11.656C8.50005 11.656 9.6003 11.656 10.3783 10.878C10.3783 10.878 11.1563 10.1 11.1563 8.99978C11.1563 8.99978 11.1563 7.89952 10.3783 7.12153C10.3783 7.12153 9.6003 6.34353 8.50005 6.34353Z" fill="#48515A"/>
<path fill-rule="evenodd" clip-rule="evenodd" d="M13.673 3.89547L13.6426 5.70052C13.6426 5.70052 13.8001 5.94225 13.9309 6.19935L15.5051 7.07456C15.6376 7.14825 15.7324 7.27509 15.7654 7.42311C15.7654 7.42311 16.117 8.99783 15.7726 10.5741C15.74 10.7234 15.6446 10.8514 15.511 10.9255L13.9307 11.8007C13.9307 11.8007 13.8 12.0576 13.6426 12.2991L13.673 14.1041C13.6756 14.2567 13.6125 14.403 13.4997 14.5058C13.4997 14.5058 12.3085 15.5912 10.775 16.0862C10.6291 16.1333 10.4699 16.1151 10.3385 16.0362L8.78556 15.1045C8.78556 15.1045 8.49989 15.1173 8.21421 15.1045L6.66778 16.0299C6.53739 16.1079 6.37983 16.1264 6.23494 16.0806C6.23494 16.0806 4.69448 15.5939 3.50043 14.5057C3.38765 14.403 3.32451 14.2567 3.32709 14.1041L3.35751 12.3031C3.35751 12.3031 3.20101 12.0589 3.06948 11.8004L1.49503 10.9251C1.36248 10.8514 1.26775 10.7245 1.2347 10.5765C1.2347 10.5765 0.883109 9.00178 1.22754 7.42546C1.26016 7.27618 1.35548 7.14817 1.48915 7.07414L3.06941 6.19892C3.06941 6.19892 3.20016 5.94204 3.35748 5.70052L3.32709 3.89547C3.32452 3.74291 3.38767 3.59662 3.50044 3.49385C3.50044 3.49385 4.69157 2.40844 6.22514 1.91339C6.37105 1.86628 6.53019 1.88452 6.66167 1.9634L8.21456 2.89514C8.21456 2.89514 8.50023 2.88235 8.78591 2.89515L10.3323 1.96973C10.4627 1.8917 10.6203 1.87324 10.7652 1.91902C10.7652 1.91902 12.3056 2.4057 13.4997 3.49387C13.6125 3.59663 13.6756 3.74292 13.673 3.89547ZM12.5775 5.84985L12.6065 4.12322C12.6065 4.12322 11.7391 3.38845 10.6681 3.00704L9.19122 3.89082C9.0977 3.94679 8.98922 3.97263 8.88052 3.96486C8.88052 3.96486 8.50006 3.93764 8.1196 3.96486C8.01068 3.97265 7.90201 3.94669 7.80837 3.89051L6.32677 3.00154C6.32677 3.00154 5.2596 3.38897 4.39357 4.12316L4.42264 5.84985C4.42452 5.9617 4.39105 6.07129 4.32699 6.163C4.32699 6.163 4.11286 6.46957 3.95411 6.80815C3.90662 6.90944 3.82836 6.99315 3.7305 7.04735L2.21925 7.88435C2.21925 7.88435 2.01787 9.00016 2.22467 10.115L3.73126 10.9527C3.82838 11.0067 3.90612 11.0898 3.95355 11.1903C3.95355 11.1903 4.11574 11.534 4.33012 11.8478C4.39217 11.9386 4.4245 12.0465 4.42264 12.1564L4.39359 13.8764C4.39359 13.8764 5.26107 14.6112 6.33205 14.9926L7.8089 14.1088C7.90242 14.0528 8.01089 14.027 8.1196 14.0348C8.1196 14.0348 8.50006 14.062 8.88051 14.0348C8.98943 14.027 9.09811 14.0529 9.19174 14.1091L10.6733 14.9981C10.6733 14.9981 11.7405 14.6106 12.6065 13.8765L12.5775 12.1498C12.5756 12.0379 12.6091 11.9283 12.6731 11.8366C12.6731 11.8366 12.8873 11.53 13.046 11.1915C13.0935 11.0902 13.1718 11.0065 13.2696 10.9523L14.7809 10.1153C14.7809 10.1153 14.9822 8.99945 14.7754 7.88457L13.2689 7.04693C13.1713 6.99271 13.0934 6.90917 13.046 6.80815C13.046 6.80815 12.8873 6.46957 12.6731 6.163C12.6091 6.07129 12.5756 5.9617 12.5775 5.84985Z" fill="#48515A"/>
</svg>
