<svg width="17" height="18" viewBox="0 0 17 18" fill="none" xmlns="http://www.w3.org/2000/svg">
<path fill-rule="evenodd" clip-rule="evenodd" d="M4.78125 7.9375V4.75C4.78125 4.4566 5.0191 4.21875 5.3125 4.21875H11.6875C11.9809 4.21875 12.2188 4.4566 12.2188 4.75V7.9375C12.2188 8.2309 11.9809 8.46875 11.6875 8.46875H5.3125C5.0191 8.46875 4.78125 8.2309 4.78125 7.9375ZM11.1562 7.40625H5.84375V5.28125H11.1562V7.40625Z" fill="#48515A"/>
<path fill-rule="evenodd" clip-rule="evenodd" d="M13.2812 2.09375C13.2812 2.09375 13.7214 2.09375 14.0326 2.40495C14.0326 2.40495 14.3438 2.71615 14.3438 3.15625V14.8438C14.3438 14.8438 14.3438 15.2839 14.0326 15.5951C14.0326 15.5951 13.7214 15.9062 13.2812 15.9062H3.71875C3.71875 15.9062 3.27865 15.9062 2.96745 15.5951C2.96745 15.5951 2.65625 15.2839 2.65625 14.8438V3.15625C2.65625 3.15625 2.65625 2.71615 2.96745 2.40495C2.96745 2.40495 3.27865 2.09375 3.71875 2.09375H13.2812ZM13.2812 3.15625H3.71875V14.8438H13.2812V3.15625Z" fill="#48515A"/>
<path d="M6.64062 10.3281C6.64062 10.7682 6.28382 11.125 5.84375 11.125C5.40368 11.125 5.04688 10.7682 5.04688 10.3281C5.04688 9.88805 5.40368 9.53125 5.84375 9.53125C6.28382 9.53125 6.64062 9.88805 6.64062 10.3281Z" fill="#48515A"/>
<path d="M9.29688 10.3281C9.29688 10.7682 8.94007 11.125 8.5 11.125C8.05993 11.125 7.70312 10.7682 7.70312 10.3281C7.70312 9.88805 8.05993 9.53125 8.5 9.53125C8.94007 9.53125 9.29688 9.88805 9.29688 10.3281Z" fill="#48515A"/>
<path d="M11.9531 10.3281C11.9531 10.7682 11.5963 11.125 11.1562 11.125C10.7162 11.125 10.3594 10.7682 10.3594 10.3281C10.3594 9.88805 10.7162 9.53125 11.1562 9.53125C11.5963 9.53125 11.9531 9.88805 11.9531 10.3281Z" fill="#48515A"/>
<path d="M6.64062 12.9844C6.64062 13.4244 6.28382 13.7812 5.84375 13.7812C5.40368 13.7812 5.04688 13.4244 5.04688 12.9844C5.04688 12.5443 5.40368 12.1875 5.84375 12.1875C6.28382 12.1875 6.64062 12.5443 6.64062 12.9844Z" fill="#48515A"/>
<path d="M9.29688 12.9844C9.29688 13.4244 8.94007 13.7812 8.5 13.7812C8.05993 13.7812 7.70312 13.4244 7.70312 12.9844C7.70312 12.5443 8.05993 12.1875 8.5 12.1875C8.94007 12.1875 9.29688 12.5443 9.29688 12.9844Z" fill="#48515A"/>
<path d="M11.9531 12.9844C11.9531 13.4244 11.5963 13.7812 11.1562 13.7812C10.7162 13.7812 10.3594 13.4244 10.3594 12.9844C10.3594 12.5443 10.7162 12.1875 11.1562 12.1875C11.5963 12.1875 11.9531 12.5443 11.9531 12.9844Z" fill="#48515A"/>
</svg>
