<svg width="17" height="18" viewBox="0 0 17 18" fill="none" xmlns="http://www.w3.org/2000/svg">
<path fill-rule="evenodd" clip-rule="evenodd" d="M5.84375 3.6875C5.84375 3.6875 7.49413 3.6875 8.66113 4.8545C8.66113 4.8545 9.82812 6.02149 9.82812 7.67188C9.82812 7.67188 9.82812 9.32226 8.66113 10.4893C8.66113 10.4893 7.49413 11.6562 5.84375 11.6562C5.84375 11.6562 4.19337 11.6562 3.02637 10.4893C3.02637 10.4893 1.85938 9.32226 1.85938 7.67188C1.85938 7.67188 1.85938 6.02149 3.02637 4.8545C3.02637 4.8545 4.19337 3.6875 5.84375 3.6875ZM5.84375 4.75C5.84375 4.75 4.63347 4.75 3.77767 5.6058C3.77767 5.6058 2.92187 6.46159 2.92188 7.67188C2.92188 7.67188 2.92187 8.88216 3.77767 9.73795C3.77767 9.73795 4.63347 10.5937 5.84375 10.5938C5.84375 10.5938 7.05403 10.5938 7.90983 9.73795C7.90983 9.73795 8.76562 8.88216 8.76562 7.67188C8.76562 7.67188 8.76562 6.46159 7.90983 5.6058C7.90983 5.6058 7.05403 4.75 5.84375 4.75Z" fill="#48515A"/>
<path d="M13.3219 9.73795C12.4661 10.5937 11.2559 10.5938 11.2559 10.5938C10.9625 10.5938 10.7246 10.8316 10.7246 11.125C10.7246 11.4184 10.9625 11.6562 11.2559 11.6562C12.9062 11.6562 14.0732 10.4893 14.0732 10.4893C15.2402 9.32226 15.2402 7.67188 15.2402 7.67188C15.2402 6.02149 14.0732 4.8545 14.0732 4.8545C12.9062 3.6875 11.2559 3.6875 11.2559 3.6875C10.708 3.68917 10.1808 3.83211 10.1808 3.83211C9.9493 3.89489 9.78827 4.10508 9.78827 4.34492L9.7883 4.35038C9.78877 4.39552 9.79498 4.44042 9.8068 4.48398C9.86958 4.71546 10.0797 4.87617 10.3195 4.87617L10.325 4.87614C10.3701 4.87568 10.415 4.86946 10.4586 4.85765C10.8509 4.75127 11.2559 4.75 11.2559 4.75C12.4661 4.75 13.3219 5.6058 13.3219 5.6058C14.1777 6.4616 14.1777 7.67188 14.1777 7.67188C14.1777 8.88215 13.3219 9.73795 13.3219 9.73795Z" fill="#48515A"/>
<path d="M8.29281 12.2542C9.44428 12.8524 10.1903 13.914 10.1903 13.914C10.2898 14.0556 10.452 14.1398 10.625 14.1398C10.6309 14.1398 10.6369 14.1397 10.6428 14.1395C10.746 14.1361 10.846 14.1026 10.9304 14.0432C11.0457 13.9622 11.1241 13.8387 11.1483 13.6999C11.1536 13.6698 11.1562 13.6392 11.1562 13.6086L11.1561 13.5971C11.1539 13.4917 11.1203 13.3894 11.0597 13.3031C10.1644 12.0291 8.78262 11.3113 8.78262 11.3113C7.40085 10.5935 5.84375 10.5938 5.84375 10.5938C4.28665 10.5938 2.90488 11.3113 2.90488 11.3113C1.52318 12.0291 0.627936 13.303 0.627936 13.303C0.565076 13.3924 0.53125 13.4992 0.53125 13.6086C0.53125 13.6209 0.531676 13.6331 0.532528 13.6454C0.543624 13.8051 0.626107 13.9512 0.757053 14.0432C0.846504 14.1061 0.953171 14.1398 1.0625 14.1398L1.06409 14.1398C1.09419 14.1397 1.12422 14.1371 1.15387 14.1319C1.29266 14.1077 1.41615 14.0293 1.49716 13.914C2.24322 12.8524 3.39469 12.2542 3.39469 12.2542C4.54617 11.656 5.84375 11.6562 5.84375 11.6562C7.14133 11.6562 8.29281 12.2542 8.29281 12.2542Z" fill="#48515A"/>
<path d="M15.602 13.9134C15.7015 14.0551 15.864 14.1398 16.0371 14.1398C16.043 14.1398 16.0488 14.1397 16.0546 14.1396C16.1578 14.1362 16.2578 14.1027 16.3423 14.0434C16.484 13.944 16.5684 13.7817 16.5684 13.6086C16.5684 13.6028 16.5683 13.5969 16.5681 13.5911C16.5647 13.4879 16.5313 13.3879 16.4719 13.3034C16.4716 13.3029 16.4712 13.3024 16.4712 13.3024C15.5766 12.0284 14.1951 11.3107 14.1951 11.3107C12.8131 10.5929 11.2559 10.5938 11.2559 10.5938C11.115 10.5938 10.9795 10.6499 10.88 10.7496C10.7805 10.8492 10.7246 10.9842 10.7246 11.125C10.7246 11.4184 10.9625 11.6562 11.2559 11.6562C12.5534 11.6554 13.7053 12.2536 13.7053 12.2536C14.8566 12.8516 15.602 13.9134 15.602 13.9134Z" fill="#48515A"/>
</svg>
